<?xml version="1.0" encoding="UTF-8"?> <svg xmlns="http://www.w3.org/2000/svg" xmlns:xlink="http://www.w3.org/1999/xlink" id="Capa_1" data-name="Capa 1" viewBox="0 0 774.75 146.76"><defs><style>.cls-1{fill:none;}.cls-2{clip-path:url(#clip-path);}.cls-3{fill:#536273;}.cls-4{fill:#dc0814;}</style><clipPath id="clip-path" transform="translate(-33.57 -224.26)"><rect class="cls-1" x="33.57" y="224.26" width="774.75" height="146.76"></rect></clipPath></defs><title>imagotipo_horizontal_fundación_don-bosco</title><g class="cls-2"><path class="cls-3" d="M429.19,371V317.74q0-20.1-21.06-20.1a124.47,124.47,0,0,0-19.77,1.53q-4.71.76-9.72,2.09a17.29,17.29,0,0,0-10.6-3.62V371h17.23v-55.8a125.46,125.46,0,0,1,21-2.35A5.6,5.6,0,0,1,412,318.5V371h17.22Z" transform="translate(-33.57 -224.26)"></path><path class="cls-3" d="M282.44,334.33c0-20.26-2.9-27.56-6-30.6s-7.73-6.08-24.63-6.08-21.55,3-24.61,6.08-6,9.77-6,30.61,2.89,27.56,6,30.61,7.7,6.08,24.57,6.08,21.62-3,24.67-6.08,6-10.36,6-30.61m-19.55,18.76c-1,1-4.37,2.8-11,2.8s-10-1.79-11-2.8-2.65-3.34-2.65-18.78,1.63-17.8,2.65-18.81,4.38-2.81,11-2.81,10,1.79,11,2.81,2.65,3.52,2.65,18.83-1.64,17.75-2.65,18.76" transform="translate(-33.57 -224.26)"></path><path class="cls-3" d="M265.42,287.82v-17a17,17,0,0,1,17,17V371a16.77,16.77,0,0,1-17-16.72V287.82Z" transform="translate(-33.57 -224.26)"></path><path class="cls-3" d="M465.88,334.33c0-20.26,2.9-27.56,6-30.6s7.74-6.08,24.63-6.08,21.55,3,24.61,6.08,6,9.77,6,30.61-2.89,27.56-6,30.61-7.7,6.08-24.57,6.08-21.62-3-24.67-6.08-6-10.36-6-30.61m19.55,18.76c1,1,4.37,2.8,11,2.8s10-1.79,11-2.8,2.65-3.34,2.65-18.78-1.63-17.8-2.65-18.81-4.38-2.81-11-2.81-10,1.79-11,2.81-2.65,3.52-2.65,18.83,1.64,17.75,2.65,18.76" transform="translate(-33.57 -224.26)"></path><path class="cls-3" d="M482.9,287.82v-17a17,17,0,0,0-17,17V371a16.77,16.77,0,0,0,17-16.72V287.82Z" transform="translate(-33.57 -224.26)"></path><path class="cls-3" d="M600.41,334.33c0-20.26-2.9-27.56-6-30.6s-7.74-6.08-24.63-6.08-21.55,3-24.61,6.08-6,9.77-6,30.61,2.89,27.56,6,30.61,7.7,6.08,24.57,6.08,21.62-3,24.67-6.08,6-10.36,6-30.61m-19.55,18.76c-1,1-4.38,2.8-11,2.8s-10-1.79-11-2.8-2.65-3.34-2.65-18.78,1.63-17.8,2.65-18.81,4.37-2.81,11-2.81,10,1.79,11,2.81,2.65,3.52,2.65,18.83-1.64,17.75-2.65,18.76" transform="translate(-33.57 -224.26)"></path><path class="cls-3" d="M808.32,334.33c0-20.26-2.9-27.56-6-30.6s-7.74-6.08-24.63-6.08-21.55,3-24.61,6.08-6,9.77-6,30.61,2.89,27.56,6,30.61,7.7,6.08,24.57,6.08,21.62-3,24.67-6.08,6-10.36,6-30.61m-19.55,18.76c-1,1-4.37,2.8-11,2.8s-10-1.79-11-2.8-2.65-3.34-2.65-18.78,1.63-17.8,2.65-18.81,4.38-2.81,11-2.81,10,1.79,11,2.81,2.65,3.52,2.65,18.83-1.63,17.75-2.65,18.76" transform="translate(-33.57 -224.26)"></path><path class="cls-3" d="M703.18,356.14V318.27a5,5,0,0,1,1.35-3.34,7.56,7.56,0,0,1,4.35-2.23,54.71,54.71,0,0,1,12.55-.28,130.82,130.82,0,0,1,13.51,1.67V300.87c-1.41-.35-2.8-0.67-4.17-1s-2.73-.54-4.06-0.76Q722,298.4,717,298t-10-.38q-10.49,0-15.74,5T686,317.52v27.27ZM686,323.87h0v27.27q0,9.94,5.25,14.91T707,371q5.12,0,10-.38t9.67-1.13c1.33-.21,2.68-0.47,4.06-0.76s2.77-.61,4.17-1V354.57a129.76,129.76,0,0,1-13.51,1.67,54.7,54.7,0,0,1-12.55-.28,7.54,7.54,0,0,1-4.35-2.23,5,5,0,0,1-1.35-3.34V312.52Z" transform="translate(-33.57 -224.26)"></path><path class="cls-3" d="M355.81,334.33c0-20.26-2.9-27.56-6-30.6s-7.74-6.08-24.63-6.08-21.55,3-24.61,6.08-6,9.77-6,30.61,2.89,27.56,6,30.61,7.7,6.08,24.57,6.08,21.61-3,24.67-6.08,6-10.36,6-30.61m-19.55,18.76c-1,1-4.37,2.8-11,2.8s-10-1.79-11-2.8-2.65-3.34-2.65-18.78,1.63-17.8,2.65-18.81,4.38-2.81,11-2.81,10,1.79,11,2.81,2.65,3.52,2.65,18.83-1.64,17.75-2.65,18.76" transform="translate(-33.57 -224.26)"></path><path class="cls-3" d="M668,314.87c0-9.48-7.32-17.23-16.36-17.23H630.94a16.78,16.78,0,0,0-16.36,17.23c0,10.48,10,17.17,10,17.17l32.75,21.74s-44.7,0-44.7,0C612.64,363.27,620,371,629,371h28.44a16.78,16.78,0,0,0,16.36-17.23c0-10.48-10-17.17-10-17.17L631,314.87s36.93,0,36.93,0" transform="translate(-33.57 -224.26)"></path><path class="cls-4" d="M418.62,255.27V240.35a6.06,6.06,0,0,1,3.2-1.09,1.89,1.89,0,0,1,1.92,2v14h7.19V241.48c0-4.9-2.06-8.33-7.33-8.33a11.13,11.13,0,0,0-5.45,2l-0.32-1.52h-6.46v21.69h7.24Zm-21.48-24.68,6.64-6.33h-9.07l-4.4,6.33h6.82Zm0.18,10.54a52.47,52.47,0,0,1,0,6.59c0,0.87-1,1.91-2.75,1.91s-2.75-1-2.79-1.91a53,53,0,0,1,0-6.59c0-.87,1-1.91,2.75-1.91s2.75,1,2.79,1.91m7.28,6.9c0.09-2.34.09-4.86,0-7.2-0.18-4.16-3.8-7.68-10-7.68-6.64,0-9.94,3.52-10.08,7.68-0.09,2.39-.09,4.86,0,7.2,0.18,4.16,3.57,7.68,10.08,7.68,6.18,0,9.85-3.47,10-7.68m-34.26-17.44h7.37v-5.68h-7.37v5.68Zm0,24.68h7.24V233.59h-7.24v21.69ZM363.88,249a34.65,34.65,0,0,1-6.5.65,2.37,2.37,0,0,1-2.61-1.91,52.52,52.52,0,0,1,0-6.59c0-1,1.1-1.91,2.61-1.91a58.84,58.84,0,0,1,6.41.39l0.59-5.9a63.78,63.78,0,0,0-7.47-.56c-6,0-9.3,3.52-9.43,7.63-0.09,2.43-.09,4.82,0,7.29,0.18,4.12,3.48,7.63,9.43,7.63a46.87,46.87,0,0,0,7.88-.87Zm-33.71,1c-1,0-1.28-.69-1.28-1.82a1.61,1.61,0,0,1,1.74-1.91h3.12v2.21s-2.11,1.52-3.57,1.52m4.3,5.29h6.46V240.92c0-4.21-3.07-7.77-9.11-7.77a38.14,38.14,0,0,0-8.79,1.17l0.69,5.47a37.91,37.91,0,0,1,7.1-.91,2.75,2.75,0,0,1,2.93,3.08h-4c-5.54,0-7.79,2.08-7.79,6.42s2.2,7.29,6.73,7.29a9.31,9.31,0,0,0,5.45-1.91ZM303,241.35a2.24,2.24,0,0,1,2.25-2.08,9.11,9.11,0,0,1,3,.56v8.68a7.23,7.23,0,0,1-2.93,1.13,2,2,0,0,1-2.29-1.82,51.17,51.17,0,0,1,0-6.46m12.46-16.44h-7.23V234a13.23,13.23,0,0,0-3.94-.65c-5.72,0-8.33,3.43-8.52,7.68-0.09,2.34-.09,4.77,0,7.16,0.14,4.12,2.88,7.55,7.24,7.55a10.71,10.71,0,0,0,5.68-2l0.32,1.52h6.46V224.91Zm-38.57,30.36V240.35a6.06,6.06,0,0,1,3.21-1.09,1.89,1.89,0,0,1,1.92,2v14h7.19V241.48c0-4.9-2.06-8.33-7.33-8.33a11.14,11.14,0,0,0-5.45,2l-0.32-1.52h-6.46v21.69h7.23Zm-21.85-21.69v14.92a6.06,6.06,0,0,1-3.21,1.09,1.89,1.89,0,0,1-1.92-2v-14h-7.19v13.79c0,4.9,2.06,8.33,7.14,8.33a11.3,11.3,0,0,0,5.63-2l0.32,1.52h6.46V233.59h-7.24Zm-33.8,6.07h3v15.61h7.28V239.66h5.77v-6.07h-5.77v-2.13a1.21,1.21,0,0,1,1.14-1.26,35.47,35.47,0,0,1,4.81.48l0.41-5.64s-4.08-.56-6.09-0.56c-4.76,0-7.56,2.78-7.56,6.81v2.3h-3v6.07Z" transform="translate(-33.57 -224.26)"></path><path class="cls-4" d="M105.74,251.64s-29.67,29.67-51,51c-5.23,5.77-21.2,14-21.2,14l12.6,12.6s9.39-5.17,12.52-7.08c1.82-1.27,3.89-3,3.89-3s3.18,8.05,3.18,13.73c0,10.76-3.61,38.06-3.61,38.06h17s4.64-34.07,3.39-44c-0.68-5.46-6.83-20.9-6.83-20.9l12.79-12.78,8.63-8.63V371h17.26V284.69l8.63,8.63,8.64,8.63V371H148.9v-51.8l8.64,8.63,8.63,8.63,6.1-6.11,6.11-6.1L142.06,288l-36.32-36.32" transform="translate(-33.57 -224.26)"></path><path class="cls-3" d="M63.82,283.38a12.21,12.21,0,1,0-12.21,12.2,12.21,12.21,0,0,0,12.21-12.2" transform="translate(-33.57 -224.26)"></path><path class="cls-4" d="M118,236.46a12.21,12.21,0,1,0-12.21,12.21A12.21,12.21,0,0,0,118,236.46" transform="translate(-33.57 -224.26)"></path><path class="cls-4" d="M161.11,272.49a12.21,12.21,0,1,0-12.21,12.2,12.21,12.21,0,0,0,12.21-12.2" transform="translate(-33.57 -224.26)"></path></g></svg> 